<svg width="227" height="54" viewBox="0 0 227 54" fill="none" xmlns="http://www.w3.org/2000/svg">
<g filter="url(#filter0_i)">
<rect width="226.133" height="53" rx="4" fill="#42A5F5"/>
</g>
<g filter="url(#filter1_d)">
<rect x="8.83334" y="7.06667" width="38.8667" height="38.8667" rx="2" fill="white"/>
</g>
<g clip-path="url(#clip0)">
<path d="M19.5743 31.6185L15 26.9988L29.8526 12H39L19.5743 31.6185ZM39 25.8408H29.8526L26.4261 29.3014L31.0004 33.921" fill="#42A5F5" fill-opacity="0.8"/>
<path d="M26.4261 38.5395L29.8526 42H39L31.0004 33.921" fill="#0D47A1"/>
<path d="M21.8626 33.9235L26.4297 29.3098L30.9968 33.9222L26.4297 38.5359L21.8626 33.9235Z" fill="#42A5F5"/>
<path d="M26.4297 38.5358L30.9968 33.9234L31.6343 34.5673L27.0672 39.1797L26.4297 38.5358Z" fill="url(#paint0_linear)"/>
<path d="M26.4261 38.5395L33.2131 36.1715L31.0004 33.9198" fill="url(#paint1_linear)"/>
</g>
<path d="M61.016 36V19.2H73.088V21.648H63.896V26.448H70.232V28.848H63.896V36H61.016ZM78.2514 18.384V36H75.5394V18.84L78.2514 18.384ZM84.2263 23.976V31.128C84.2263 31.992 84.4663 32.688 84.9463 33.216C85.4263 33.744 86.0663 34.008 86.8663 34.008C87.4103 34.008 87.9063 33.888 88.3543 33.648C88.8023 33.392 89.1863 33.016 89.5063 32.52V23.976H92.2183V36H89.5063V34.008C89.0583 34.712 88.5063 35.256 87.8503 35.64C87.2103 36.008 86.4823 36.192 85.6663 36.192C84.4503 36.192 83.4503 35.792 82.6663 34.992C81.8983 34.192 81.5143 33.16 81.5143 31.896V23.976H84.2263ZM97.043 32.832V26.136H94.619V23.976H97.043V20.664L99.755 20.088V23.976H103.115V26.136H99.755V32.232C99.755 32.824 99.883 33.248 100.139 33.504C100.395 33.744 100.827 33.864 101.435 33.864C101.707 33.864 101.955 33.848 102.179 33.816C102.419 33.768 102.715 33.688 103.067 33.576V35.856C102.715 35.968 102.323 36.048 101.891 36.096C101.475 36.16 101.091 36.192 100.739 36.192C99.539 36.192 98.619 35.912 97.979 35.352C97.355 34.776 97.043 33.936 97.043 32.832ZM107.215 32.832V26.136H104.791V23.976H107.215V20.664L109.927 20.088V23.976H113.287V26.136H109.927V32.232C109.927 32.824 110.055 33.248 110.311 33.504C110.567 33.744 110.999 33.864 111.607 33.864C111.879 33.864 112.127 33.848 112.351 33.816C112.591 33.768 112.887 33.688 113.239 33.576V35.856C112.887 35.968 112.495 36.048 112.063 36.096C111.647 36.16 111.263 36.192 110.911 36.192C109.711 36.192 108.791 35.912 108.151 35.352C107.527 34.776 107.215 33.936 107.215 32.832ZM125.844 34.464C125.108 35.072 124.356 35.52 123.588 35.808C122.836 36.096 121.996 36.24 121.068 36.24C120.22 36.24 119.42 36.08 118.668 35.76C117.916 35.44 117.268 35 116.724 34.44C116.18 33.88 115.748 33.216 115.428 32.448C115.108 31.68 114.948 30.864 114.948 30C114.948 29.12 115.092 28.304 115.38 27.552C115.684 26.784 116.092 26.128 116.604 25.584C117.132 25.024 117.756 24.584 118.476 24.264C119.196 23.944 119.972 23.784 120.804 23.784C121.62 23.784 122.372 23.944 123.06 24.264C123.764 24.568 124.364 24.992 124.86 25.536C125.372 26.08 125.772 26.736 126.06 27.504C126.348 28.256 126.492 29.08 126.492 29.976V30.648H117.612C117.74 31.592 118.14 32.376 118.812 33C119.5 33.624 120.3 33.936 121.212 33.936C121.772 33.936 122.3 33.84 122.796 33.648C123.308 33.44 123.732 33.16 124.068 32.808L125.844 34.464ZM120.78 25.992C119.98 25.992 119.3 26.264 118.74 26.808C118.18 27.352 117.82 28.08 117.66 28.992H123.924C123.764 28.112 123.396 27.392 122.82 26.832C122.26 26.272 121.58 25.992 120.78 25.992ZM129.258 36V23.976H131.97V26.592C132.29 25.68 132.73 24.984 133.29 24.504C133.866 24.008 134.53 23.76 135.282 23.76C135.506 23.776 135.706 23.8 135.882 23.832C136.058 23.864 136.25 23.92 136.458 24V26.376C136.25 26.28 136.01 26.208 135.738 26.16C135.482 26.112 135.226 26.088 134.97 26.088C134.33 26.088 133.746 26.264 133.218 26.616C132.69 26.968 132.274 27.456 131.97 28.08V36H129.258Z" fill="white"/>
<defs>
<filter id="filter0_i" x="0" y="0" width="226.133" height="57" filterUnits="userSpaceOnUse" color-interpolation-filters="sRGB">
<feFlood flood-opacity="0" result="BackgroundImageFix"/>
<feBlend mode="normal" in="SourceGraphic" in2="BackgroundImageFix" result="shape"/>
<feColorMatrix in="SourceAlpha" type="matrix" values="0 0 0 0 0 0 0 0 0 0 0 0 0 0 0 0 0 0 127 0" result="hardAlpha"/>
<feOffset dy="4"/>
<feGaussianBlur stdDeviation="2"/>
<feComposite in2="hardAlpha" operator="arithmetic" k2="-1" k3="1"/>
<feColorMatrix type="matrix" values="0 0 0 0 0 0 0 0 0 0 0 0 0 0 0 0 0 0 0.25 0"/>
<feBlend mode="normal" in2="shape" result="effect1_innerShadow"/>
</filter>
<filter id="filter1_d" x="4.83334" y="7.06667" width="46.8667" height="46.8667" filterUnits="userSpaceOnUse" color-interpolation-filters="sRGB">
<feFlood flood-opacity="0" result="BackgroundImageFix"/>
<feColorMatrix in="SourceAlpha" type="matrix" values="0 0 0 0 0 0 0 0 0 0 0 0 0 0 0 0 0 0 127 0"/>
<feOffset dy="4"/>
<feGaussianBlur stdDeviation="2"/>
<feColorMatrix type="matrix" values="0 0 0 0 0 0 0 0 0 0 0 0 0 0 0 0 0 0 0.25 0"/>
<feBlend mode="normal" in2="BackgroundImageFix" result="effect1_dropShadow"/>
<feBlend mode="normal" in="SourceGraphic" in2="effect1_dropShadow" result="shape"/>
</filter>
<linearGradient id="paint0_linear" x1="28.7141" y1="36.2288" x2="29.358" y2="36.8663" gradientUnits="userSpaceOnUse">
<stop offset="0.2" stop-opacity="0.15"/>
<stop offset="0.85" stop-color="#616161" stop-opacity="0.01"/>
</linearGradient>
<linearGradient id="paint1_linear" x1="26.4277" y1="36.2298" x2="33.2146" y2="36.2298" gradientUnits="userSpaceOnUse">
<stop offset="0.2" stop-opacity="0.55"/>
<stop offset="0.85" stop-color="#616161" stop-opacity="0.01"/>
</linearGradient>
<clipPath id="clip0">
<rect width="24" height="30" fill="white" transform="translate(15 12)"/>
</clipPath>
</defs>
</svg>
