<svg width="227" height="54" viewBox="0 0 227 54" fill="none" xmlns="http://www.w3.org/2000/svg">
<g filter="url(#filter0_i)">
<rect width="226.133" height="53" rx="4" fill="#53C1DE"/>
</g>
<g filter="url(#filter1_d)">
<rect x="8.83334" y="7.06667" width="38.8667" height="38.8667" rx="2" fill="white"/>
</g>
<path d="M10.106 26.9652C10.106 29.6386 12.7445 32.1342 16.904 33.5409C16.0734 37.6783 16.7552 41.0131 19.0324 42.3124C21.373 43.6481 24.8601 42.7236 28.1698 39.861C31.3961 42.6079 34.6566 43.689 36.9318 42.3859C39.2703 41.0465 39.9814 37.4856 39.1279 33.219C43.4604 31.8018 45.8838 29.6738 45.8838 26.9652C45.8838 24.3539 43.2406 22.0948 39.137 20.6971C40.056 16.2543 39.2774 13.0004 36.9058 11.6474C34.6195 10.3429 31.321 11.4799 28.0474 14.2986C24.6416 11.3068 21.3757 10.3934 19.0067 11.7502C16.7225 13.0584 16.0707 16.4539 16.904 20.6678C12.8848 22.0542 10.106 24.3645 10.106 26.9652Z" fill="white"/>
<path d="M38.268 22.0851C37.9298 21.9703 37.5887 21.864 37.2451 21.7662C37.3021 21.5371 37.3548 21.307 37.4032 21.076C38.1774 17.3573 37.6712 14.3615 35.9424 13.3754C34.2849 12.4296 31.5741 13.4157 28.8362 15.773C28.5665 16.0058 28.3027 16.2453 28.0451 16.4913C27.8726 16.3278 27.6971 16.1674 27.5186 16.0102C24.6493 13.4895 21.7732 12.4273 20.0463 13.4164C18.3903 14.3649 17.8999 17.1813 18.5969 20.7055C18.6663 21.0545 18.7446 21.4017 18.8317 21.7467C18.4248 21.8611 18.0318 21.983 17.6557 22.1126C14.2918 23.273 12.1435 25.0917 12.1435 26.978C12.1435 28.9264 14.4496 30.8806 17.9536 32.0655C18.2377 32.1611 18.5242 32.2497 18.8128 32.3312C18.719 32.7029 18.6358 33.0772 18.5632 33.4536C17.8986 36.9165 18.4176 39.6661 20.0692 40.6088C21.775 41.582 24.638 40.5816 27.426 38.1705C27.6463 37.9799 27.8675 37.7777 28.089 37.5658C28.3679 37.8321 28.6544 38.0907 28.9479 38.3412C31.6483 40.6403 34.3153 41.5688 35.9655 40.6236C37.6698 39.6475 38.2236 36.6936 37.5044 33.0997C37.4496 32.8252 37.3856 32.5449 37.3139 32.2594C37.515 32.2007 37.7123 32.14 37.9048 32.0769C41.5474 30.8828 43.9172 28.9524 43.9172 26.978C43.9172 25.0849 41.6997 23.2539 38.268 22.0851V22.0851Z" fill="#53C1DE"/>
<path d="M37.4778 30.8022C37.3041 30.8591 37.1258 30.914 36.9441 30.9673C36.542 29.7078 35.9992 28.3683 35.3352 26.9847C35.969 25.6337 36.4907 24.3116 36.8816 23.0601C37.2065 23.1533 37.5221 23.2514 37.8261 23.3551C40.7665 24.3564 42.5599 25.8371 42.5599 26.978C42.5599 28.1933 40.6229 29.7711 37.4779 30.8022H37.4778ZM36.1729 33.3606C36.4908 34.9498 36.5362 36.3866 36.3256 37.5098C36.1363 38.519 35.7558 39.1919 35.2853 39.4613C34.2839 40.0348 32.1424 39.2894 29.8332 37.3232C29.5684 37.0978 29.3016 36.8571 29.0342 36.6025C29.9295 35.6336 30.8243 34.5072 31.6975 33.2564C33.2336 33.1216 34.6848 32.9011 36.0009 32.6001C36.0656 32.8589 36.1232 33.1126 36.1729 33.3606V33.3606ZM22.9758 39.3623C21.9975 39.7041 21.2183 39.7139 20.7474 39.4452C19.745 38.8734 19.3285 36.6654 19.8968 33.704C19.9643 33.354 20.0417 33.006 20.1288 32.6602C21.4302 32.945 22.8709 33.15 24.4106 33.2735C25.2896 34.4975 26.2103 35.6225 27.1381 36.6076C26.9409 36.7964 26.7391 36.9803 26.5327 37.1592C25.2999 38.2255 24.0646 38.9818 22.9759 39.3623H22.9758ZM18.3926 30.7946C16.8432 30.2707 15.5637 29.5898 14.6867 28.8468C13.8987 28.179 13.5007 27.516 13.5007 26.978C13.5007 25.8334 15.2257 24.3732 18.1026 23.3808C18.4637 23.2568 18.8284 23.1432 19.1962 23.0403C19.5939 24.3199 20.1154 25.6578 20.7448 27.0107C20.1073 28.3838 19.5783 29.743 19.1769 31.0376C18.9135 30.963 18.652 30.882 18.3926 30.7946V30.7946ZM19.929 20.4475C19.3318 17.428 19.7283 15.1503 20.7263 14.5787C21.7894 13.9699 24.1398 14.8381 26.6172 17.0145C26.7756 17.1536 26.9346 17.2993 27.0939 17.45C26.1709 18.4307 25.2587 19.5472 24.3873 20.764C22.8929 20.9011 21.4624 21.1212 20.1474 21.416C20.0663 21.095 19.9935 20.772 19.929 20.4474V20.4475ZM33.6347 23.796C33.3241 23.2651 33.0019 22.7409 32.6685 22.2238C33.6824 22.3504 34.6536 22.5187 35.5657 22.7248C35.2919 23.5931 34.9506 24.5011 34.5487 25.4319C34.2551 24.8806 33.9503 24.3352 33.6347 23.796V23.796ZM28.0455 18.4097C28.6715 19.0807 29.2986 19.8301 29.9153 20.643C28.6642 20.5845 27.4111 20.5842 26.1599 20.6422C26.7773 19.8367 27.4096 19.0885 28.0455 18.4097V18.4097ZM22.4205 23.8051C22.1088 24.3401 21.8097 24.8821 21.5236 25.4309C21.1283 24.5033 20.7901 23.5913 20.5139 22.7106C21.4205 22.5098 22.3873 22.3458 23.3945 22.2213C23.0574 22.7416 22.7326 23.2697 22.4205 23.8051V23.8051ZM23.4235 31.8306C22.3829 31.7157 21.4015 31.56 20.4952 31.3648C20.7758 30.4685 21.1214 29.5369 21.5251 28.5894C21.8125 29.1386 22.1128 29.681 22.4259 30.2161C22.7454 30.7621 23.0781 31.3004 23.4235 31.8306V31.8306ZM28.083 35.6412C27.4397 34.9544 26.7981 34.1947 26.1713 33.3776C26.7796 33.4012 27.3999 33.4132 28.0303 33.4132C28.678 33.4132 29.3182 33.3989 29.9484 33.3711C29.3296 34.2031 28.7049 34.9638 28.083 35.6412ZM34.5616 28.5411C34.9863 29.4989 35.3443 30.4255 35.6287 31.3066C34.7073 31.5146 33.7127 31.6822 32.6647 31.8065C33.0005 31.2797 33.3258 30.7464 33.6402 30.2068C33.9598 29.6584 34.267 29.1031 34.5616 28.5411V28.5411ZM32.4643 29.5359C31.983 30.3632 31.4746 31.1747 30.94 31.9693C29.9973 32.036 29.0231 32.0703 28.0303 32.0703C27.0416 32.0703 26.0798 32.0399 25.1535 31.9804C24.605 31.1877 24.087 30.3748 23.6007 29.5433C23.1166 28.7162 22.6644 27.8713 22.2451 27.0103C22.6633 26.149 23.1141 25.3036 23.5966 24.4759V24.4762C24.0789 23.6483 24.5928 22.8388 25.1372 22.0495C26.0822 21.9788 27.051 21.9418 28.0305 21.9418C29.0142 21.9418 29.9844 21.9791 30.929 22.0503C31.4679 22.8384 31.9786 23.6451 32.4599 24.4688C32.9441 25.2947 33.4009 26.1359 33.8297 26.9912C33.4053 27.8552 32.9499 28.704 32.4644 29.5359H32.4643ZM35.2645 14.5388C36.3284 15.146 36.7422 17.5942 36.0737 20.8049C36.0299 21.0141 35.9823 21.2225 35.9308 21.4299C34.6127 21.129 33.1812 20.905 31.6825 20.7658C30.8094 19.5358 29.9048 18.4173 28.9966 17.4493C29.2346 17.2223 29.4782 17.0012 29.7273 16.7862C32.0731 14.7663 34.2655 13.9688 35.2645 14.5388V14.5388Z" fill="white"/>
<path d="M28.0303 24.1708C29.5974 24.1708 30.8676 25.4277 30.8676 26.978C30.8676 28.5285 29.5974 29.7854 28.0303 29.7854C26.4634 29.7854 25.1931 28.5285 25.1931 26.978C25.1931 25.4277 26.4634 24.1708 28.0303 24.1708" fill="#53C1DE"/>
<path d="M61.016 36V19.2H68.48C70.128 19.2 71.472 19.672 72.512 20.616C73.568 21.56 74.096 22.784 74.096 24.288C74.096 25.376 73.792 26.328 73.184 27.144C72.592 27.96 71.792 28.544 70.784 28.896L74.312 36H71.12L67.88 29.28H63.896V36H61.016ZM68.24 21.624H63.896V26.976H68.24C69.12 26.976 69.832 26.736 70.376 26.256C70.92 25.76 71.192 25.112 71.192 24.312C71.192 23.512 70.92 22.864 70.376 22.368C69.832 21.872 69.12 21.624 68.24 21.624ZM86.5396 34.464C85.8036 35.072 85.0516 35.52 84.2836 35.808C83.5316 36.096 82.6916 36.24 81.7636 36.24C80.9156 36.24 80.1156 36.08 79.3636 35.76C78.6116 35.44 77.9636 35 77.4196 34.44C76.8756 33.88 76.4436 33.216 76.1236 32.448C75.8036 31.68 75.6436 30.864 75.6436 30C75.6436 29.12 75.7876 28.304 76.0756 27.552C76.3796 26.784 76.7876 26.128 77.2996 25.584C77.8276 25.024 78.4516 24.584 79.1716 24.264C79.8916 23.944 80.6676 23.784 81.4996 23.784C82.3156 23.784 83.0676 23.944 83.7556 24.264C84.4596 24.568 85.0596 24.992 85.5556 25.536C86.0676 26.08 86.4676 26.736 86.7556 27.504C87.0436 28.256 87.1876 29.08 87.1876 29.976V30.648H78.3076C78.4356 31.592 78.8356 32.376 79.5076 33C80.1956 33.624 80.9956 33.936 81.9076 33.936C82.4676 33.936 82.9956 33.84 83.4916 33.648C84.0036 33.44 84.4276 33.16 84.7636 32.808L86.5396 34.464ZM81.4756 25.992C80.6756 25.992 79.9956 26.264 79.4356 26.808C78.8756 27.352 78.5156 28.08 78.3556 28.992H84.6196C84.4596 28.112 84.0916 27.392 83.5156 26.832C82.9556 26.272 82.2756 25.992 81.4756 25.992ZM93.5077 36.192C92.2597 36.192 91.2357 35.856 90.4357 35.184C89.6517 34.496 89.2597 33.616 89.2597 32.544C89.2597 31.472 89.6677 30.616 90.4837 29.976C91.3157 29.336 92.4357 29.016 93.8437 29.016C94.4037 29.016 94.9477 29.08 95.4757 29.208C96.0037 29.32 96.5397 29.504 97.0837 29.76V28.44C97.0837 27.656 96.8517 27.064 96.3877 26.664C95.9237 26.248 95.2357 26.04 94.3237 26.04C93.8277 26.04 93.2917 26.12 92.7157 26.28C92.1397 26.424 91.5077 26.656 90.8197 26.976L89.8597 25.008C90.7557 24.592 91.6117 24.288 92.4277 24.096C93.2437 23.888 94.0517 23.784 94.8517 23.784C96.4037 23.784 97.6117 24.168 98.4757 24.936C99.3397 25.688 99.7717 26.76 99.7717 28.152V36H97.0837V34.776C96.5397 35.272 95.9797 35.632 95.4037 35.856C94.8277 36.08 94.1957 36.192 93.5077 36.192ZM91.8037 32.496C91.8037 33.04 92.0277 33.48 92.4757 33.816C92.9237 34.136 93.5157 34.296 94.2517 34.296C94.7957 34.296 95.2997 34.216 95.7637 34.056C96.2437 33.896 96.6837 33.648 97.0837 33.312V31.344C96.6517 31.136 96.2117 30.992 95.7637 30.912C95.3157 30.816 94.8277 30.768 94.2997 30.768C93.5317 30.768 92.9237 30.928 92.4757 31.248C92.0277 31.552 91.8037 31.968 91.8037 32.496ZM108.743 33.84C109.319 33.84 109.855 33.728 110.351 33.504C110.863 33.28 111.295 32.952 111.647 32.52L113.279 34.152C112.719 34.792 112.023 35.304 111.191 35.688C110.359 36.056 109.487 36.24 108.575 36.24C107.727 36.24 106.927 36.08 106.175 35.76C105.439 35.44 104.799 35 104.255 34.44C103.711 33.88 103.279 33.216 102.959 32.448C102.655 31.68 102.503 30.864 102.503 30C102.503 29.136 102.655 28.328 102.959 27.576C103.279 26.808 103.711 26.152 104.255 25.608C104.799 25.048 105.439 24.608 106.175 24.288C106.927 23.968 107.727 23.808 108.575 23.808C109.503 23.808 110.383 23.984 111.215 24.336C112.063 24.688 112.783 25.184 113.375 25.824L111.695 27.576C111.279 27.112 110.815 26.76 110.303 26.52C109.791 26.28 109.247 26.16 108.671 26.16C107.711 26.16 106.895 26.536 106.223 27.288C105.551 28.024 105.215 28.928 105.215 30C105.215 31.088 105.551 32 106.223 32.736C106.895 33.472 107.735 33.84 108.743 33.84ZM117.34 32.832V26.136H114.916V23.976H117.34V20.664L120.052 20.088V23.976H123.412V26.136H120.052V32.232C120.052 32.824 120.18 33.248 120.436 33.504C120.692 33.744 121.124 33.864 121.732 33.864C122.004 33.864 122.252 33.848 122.476 33.816C122.716 33.768 123.012 33.688 123.364 33.576V35.856C123.012 35.968 122.62 36.048 122.188 36.096C121.772 36.16 121.388 36.192 121.036 36.192C119.836 36.192 118.916 35.912 118.276 35.352C117.652 34.776 117.34 33.936 117.34 32.832ZM137.597 29.568C137.597 31.584 136.997 33.2 135.797 34.416C134.597 35.632 133.005 36.24 131.021 36.24C129.469 36.24 128.133 35.84 127.013 35.04C125.893 34.224 125.101 33.072 124.637 31.584L127.277 30.6C127.629 31.624 128.117 32.4 128.741 32.928C129.365 33.44 130.133 33.696 131.045 33.696C132.149 33.696 133.037 33.312 133.709 32.544C134.381 31.776 134.717 30.76 134.717 29.496V19.2H137.597V29.568ZM139.849 33.528L141.409 31.416C142.481 32.296 143.449 32.928 144.313 33.312C145.177 33.68 146.089 33.864 147.049 33.864C148.153 33.864 149.057 33.616 149.761 33.12C150.465 32.608 150.817 31.968 150.817 31.2C150.817 30.512 150.585 29.992 150.121 29.64C149.657 29.288 148.873 29.008 147.769 28.8L144.673 28.272C143.233 28.016 142.153 27.528 141.433 26.808C140.713 26.088 140.353 25.152 140.353 24C140.353 22.496 140.913 21.28 142.033 20.352C143.169 19.424 144.673 18.96 146.545 18.96C147.793 18.96 148.985 19.152 150.121 19.536C151.273 19.904 152.329 20.44 153.289 21.144L151.825 23.304C150.993 22.664 150.121 22.184 149.209 21.864C148.297 21.528 147.377 21.36 146.449 21.36C145.441 21.36 144.633 21.584 144.025 22.032C143.417 22.48 143.113 23.048 143.113 23.736C143.113 24.328 143.313 24.792 143.713 25.128C144.129 25.464 144.793 25.704 145.705 25.848L148.681 26.376C150.361 26.664 151.609 27.192 152.425 27.96C153.241 28.712 153.649 29.72 153.649 30.984C153.649 31.752 153.481 32.464 153.145 33.12C152.825 33.76 152.369 34.312 151.777 34.776C151.185 35.224 150.473 35.584 149.641 35.856C148.809 36.112 147.897 36.24 146.905 36.24C145.593 36.24 144.353 36.016 143.185 35.568C142.017 35.104 140.905 34.424 139.849 33.528Z" fill="#1C1C1C"/>
<defs>
<filter id="filter0_i" x="0" y="0" width="226.133" height="57" filterUnits="userSpaceOnUse" color-interpolation-filters="sRGB">
<feFlood flood-opacity="0" result="BackgroundImageFix"/>
<feBlend mode="normal" in="SourceGraphic" in2="BackgroundImageFix" result="shape"/>
<feColorMatrix in="SourceAlpha" type="matrix" values="0 0 0 0 0 0 0 0 0 0 0 0 0 0 0 0 0 0 127 0" result="hardAlpha"/>
<feOffset dy="4"/>
<feGaussianBlur stdDeviation="2"/>
<feComposite in2="hardAlpha" operator="arithmetic" k2="-1" k3="1"/>
<feColorMatrix type="matrix" values="0 0 0 0 0 0 0 0 0 0 0 0 0 0 0 0 0 0 0.25 0"/>
<feBlend mode="normal" in2="shape" result="effect1_innerShadow"/>
</filter>
<filter id="filter1_d" x="4.83334" y="7.06667" width="46.8667" height="46.8667" filterUnits="userSpaceOnUse" color-interpolation-filters="sRGB">
<feFlood flood-opacity="0" result="BackgroundImageFix"/>
<feColorMatrix in="SourceAlpha" type="matrix" values="0 0 0 0 0 0 0 0 0 0 0 0 0 0 0 0 0 0 127 0"/>
<feOffset dy="4"/>
<feGaussianBlur stdDeviation="2"/>
<feColorMatrix type="matrix" values="0 0 0 0 0 0 0 0 0 0 0 0 0 0 0 0 0 0 0.25 0"/>
<feBlend mode="normal" in2="BackgroundImageFix" result="effect1_dropShadow"/>
<feBlend mode="normal" in="SourceGraphic" in2="effect1_dropShadow" result="shape"/>
</filter>
</defs>
</svg>
