<svg width="227" height="54" viewBox="0 0 227 54" fill="none" xmlns="http://www.w3.org/2000/svg">
<g filter="url(#filter0_i)">
<rect width="226.133" height="53" rx="4" fill="#35495E"/>
</g>
<g filter="url(#filter1_d)">
<rect x="8.83334" y="7.06667" width="38.8667" height="38.8667" rx="2" fill="white"/>
</g>
<path d="M36.4 15.925H42L28 40.075L14 15.925H24.71L28 21.525L31.22 15.925H36.4Z" fill="#41B883"/>
<path d="M14 15.925L28 40.075L42 15.925H36.4L28 30.415L19.53 15.925H14Z" fill="#41B883"/>
<path d="M19.53 15.925L28 30.485L36.4 15.925H31.22L28 21.525L24.71 15.925H19.53Z" fill="#35495E"/>
<path d="M65.672 36L59.144 19.2H62.24L67.4 33.096L72.608 19.2H75.584L69.008 36H65.672ZM79.0934 23.976V31.128C79.0934 31.992 79.3334 32.688 79.8134 33.216C80.2934 33.744 80.9334 34.008 81.7334 34.008C82.2774 34.008 82.7734 33.888 83.2214 33.648C83.6694 33.392 84.0534 33.016 84.3734 32.52V23.976H87.0854V36H84.3734V34.008C83.9254 34.712 83.3734 35.256 82.7174 35.64C82.0774 36.008 81.3494 36.192 80.5334 36.192C79.3174 36.192 78.3174 35.792 77.5334 34.992C76.7654 34.192 76.3814 33.16 76.3814 31.896V23.976H79.0934ZM100.766 34.464C100.03 35.072 99.2782 35.52 98.5102 35.808C97.7582 36.096 96.9182 36.24 95.9902 36.24C95.1422 36.24 94.3422 36.08 93.5902 35.76C92.8382 35.44 92.1902 35 91.6462 34.44C91.1022 33.88 90.6702 33.216 90.3502 32.448C90.0302 31.68 89.8702 30.864 89.8702 30C89.8702 29.12 90.0142 28.304 90.3022 27.552C90.6062 26.784 91.0142 26.128 91.5262 25.584C92.0542 25.024 92.6782 24.584 93.3982 24.264C94.1182 23.944 94.8942 23.784 95.7262 23.784C96.5422 23.784 97.2942 23.944 97.9822 24.264C98.6862 24.568 99.2862 24.992 99.7822 25.536C100.294 26.08 100.694 26.736 100.982 27.504C101.27 28.256 101.414 29.08 101.414 29.976V30.648H92.5342C92.6622 31.592 93.0622 32.376 93.7342 33C94.4222 33.624 95.2222 33.936 96.1342 33.936C96.6942 33.936 97.2222 33.84 97.7182 33.648C98.2302 33.44 98.6542 33.16 98.9902 32.808L100.766 34.464ZM95.7022 25.992C94.9022 25.992 94.2222 26.264 93.6622 26.808C93.1022 27.352 92.7422 28.08 92.5822 28.992H98.8462C98.6862 28.112 98.3182 27.392 97.7422 26.832C97.1822 26.272 96.5022 25.992 95.7022 25.992ZM115.988 29.568C115.988 31.584 115.388 33.2 114.188 34.416C112.988 35.632 111.396 36.24 109.412 36.24C107.86 36.24 106.524 35.84 105.404 35.04C104.284 34.224 103.492 33.072 103.028 31.584L105.668 30.6C106.02 31.624 106.508 32.4 107.132 32.928C107.756 33.44 108.524 33.696 109.436 33.696C110.54 33.696 111.428 33.312 112.1 32.544C112.772 31.776 113.108 30.76 113.108 29.496V19.2H115.988V29.568ZM118.381 34.608L119.653 32.784C120.437 33.28 121.125 33.632 121.717 33.84C122.309 34.048 122.909 34.152 123.517 34.152C124.237 34.152 124.821 34.008 125.269 33.72C125.717 33.416 125.941 33.024 125.941 32.544C125.941 32.176 125.805 31.888 125.533 31.68C125.277 31.456 124.861 31.288 124.285 31.176L122.149 30.816C120.997 30.608 120.125 30.232 119.533 29.688C118.957 29.128 118.669 28.4 118.669 27.504C118.669 26.384 119.093 25.488 119.941 24.816C120.805 24.128 121.933 23.784 123.325 23.784C124.157 23.784 124.957 23.904 125.725 24.144C126.509 24.368 127.285 24.728 128.053 25.224L126.781 27C126.157 26.6 125.549 26.312 124.957 26.136C124.365 25.944 123.765 25.848 123.157 25.848C122.533 25.848 122.029 25.976 121.645 26.232C121.277 26.472 121.093 26.816 121.093 27.264C121.093 27.648 121.213 27.936 121.453 28.128C121.709 28.32 122.157 28.472 122.797 28.584L124.909 28.968C126.109 29.192 126.997 29.584 127.573 30.144C128.165 30.704 128.461 31.432 128.461 32.328C128.461 32.872 128.333 33.384 128.077 33.864C127.837 34.344 127.493 34.76 127.045 35.112C126.613 35.464 126.093 35.744 125.485 35.952C124.893 36.144 124.253 36.24 123.565 36.24C122.525 36.24 121.557 36.104 120.661 35.832C119.781 35.544 119.021 35.136 118.381 34.608Z" fill="white"/>
<defs>
<filter id="filter0_i" x="0" y="0" width="226.133" height="57" filterUnits="userSpaceOnUse" color-interpolation-filters="sRGB">
<feFlood flood-opacity="0" result="BackgroundImageFix"/>
<feBlend mode="normal" in="SourceGraphic" in2="BackgroundImageFix" result="shape"/>
<feColorMatrix in="SourceAlpha" type="matrix" values="0 0 0 0 0 0 0 0 0 0 0 0 0 0 0 0 0 0 127 0" result="hardAlpha"/>
<feOffset dy="4"/>
<feGaussianBlur stdDeviation="2"/>
<feComposite in2="hardAlpha" operator="arithmetic" k2="-1" k3="1"/>
<feColorMatrix type="matrix" values="0 0 0 0 0 0 0 0 0 0 0 0 0 0 0 0 0 0 0.25 0"/>
<feBlend mode="normal" in2="shape" result="effect1_innerShadow"/>
</filter>
<filter id="filter1_d" x="4.83334" y="7.06667" width="46.8667" height="46.8667" filterUnits="userSpaceOnUse" color-interpolation-filters="sRGB">
<feFlood flood-opacity="0" result="BackgroundImageFix"/>
<feColorMatrix in="SourceAlpha" type="matrix" values="0 0 0 0 0 0 0 0 0 0 0 0 0 0 0 0 0 0 127 0"/>
<feOffset dy="4"/>
<feGaussianBlur stdDeviation="2"/>
<feColorMatrix type="matrix" values="0 0 0 0 0 0 0 0 0 0 0 0 0 0 0 0 0 0 0.25 0"/>
<feBlend mode="normal" in2="BackgroundImageFix" result="effect1_dropShadow"/>
<feBlend mode="normal" in="SourceGraphic" in2="effect1_dropShadow" result="shape"/>
</filter>
</defs>
</svg>
